<svg width="24" height="24" viewBox="0 0 24 24" fill="none" xmlns="http://www.w3.org/2000/svg">
<path d="M10 4C10.8012 4 11.5185 4.35892 12 4.92474C12.4815 4.35892 13.1988 4 14 4H20.625C21.3844 4 22 4.61561 22 5.375V18.625C22 19.3844 21.3844 20 20.625 20H14C13.1988 20 12.4815 19.6411 12 19.0753C11.5185 19.6411 10.8012 20 10 20H3.375C2.61561 20 2 19.3844 2 18.625V5.375C2 4.61561 2.61561 4 3.375 4H10ZM11.375 17.375V6.625C11.375 5.8656 10.7594 5.25 10 5.25H3.375C3.30596 5.25 3.25 5.30595 3.25 5.375V18.625C3.25 18.694 3.30596 18.75 3.375 18.75H10C10.7594 18.75 11.375 18.1344 11.375 17.375ZM12.625 6.625V17.375C12.625 18.1344 13.2406 18.75 14 18.75H20.625C20.694 18.75 20.75 18.694 20.75 18.625V5.375C20.75 5.30595 20.694 5.25 20.625 5.25H14C13.2406 5.25 12.625 5.8656 12.625 6.625Z" fill="#212121"/>
</svg>
